<svg width="114" height="63" viewBox="0 0 114 63" fill="none" xmlns="http://www.w3.org/2000/svg">
<g filter="url(#filter0_f_118_12)">
<path d="M30.9132 49.7533C29.5616 48.8233 28.3449 42.965 29.3532 42.4133C30.5832 41.7433 30.4966 43.805 33.1116 46.35C35.7266 48.8967 43.8949 47.8717 45.9582 48.56C48.2299 49.3183 35.3166 52.7817 30.9132 49.7533Z" fill="#F35B2E" fill-opacity="0.3"/>
<path d="M33.1115 46.3517C30.8331 37.0134 31.9248 31.8784 33.2215 28.4484C35.4998 22.4134 51.9981 8.9617 63.8331 4.7417C66.9631 3.62503 76.8665 2.01337 82.4998 2.01337C83.4815 5.90003 80.5431 13.2084 79.7998 14.5434C78.1181 17.56 73.8598 21.665 65.3898 30.3467C64.9698 30.7767 56.8581 29.58 56.4298 30.0284C55.9581 30.5217 63.1698 32.66 62.6881 33.1767C61.4581 34.4934 60.1965 35.8834 58.9081 37.355C58.6215 37.6817 45.0565 35.8167 44.7681 36.1517C44.3815 36.6017 57.2698 39.255 56.8781 39.7184C55.8031 40.9934 54.7131 42.325 53.6131 43.7134C50.7381 47.3434 33.1115 46.3517 33.1115 46.3517Z" fill="black" fill-opacity="0.3"/>
<path d="M56.0831 21.6584C58.7298 23.2684 64.9681 24.8967 69.9431 25.695C73.1065 22.4667 75.4415 20.065 77.1131 18.1467C73.3481 17.33 67.5431 15.98 64.6348 14.6684L63.2748 13.9967L55.1548 20.9467L56.0831 21.6584Z" fill="#F35B2E" fill-opacity="0.3"/>
<path d="M82.6465 2.87003C82.6171 2.58149 82.5681 2.29528 82.4999 2.01337C81.8699 2.01337 81.1799 2.0367 80.4582 2.07337C74.7282 2.37003 66.6132 3.75003 63.8332 4.7417C63.2582 4.9467 62.6632 5.1917 62.0682 5.43837C61.2715 5.76837 60.4615 6.1317 59.6365 6.52837C60.2299 8.9967 61.5132 11.7684 62.6482 13.2167C59.8622 15.3835 57.173 17.6718 54.5882 20.075C45.1632 28.8217 37.8865 38.195 32.9132 45.4784C32.9799 45.7684 33.0399 46.0517 33.1132 46.3517C33.1132 46.3517 33.4782 46.3717 34.0949 46.395C36.5649 42.5817 43.5999 32.6634 56.0849 21.66C58.8496 19.2271 61.7015 16.895 64.6349 14.6684C67.5432 15.98 73.3482 17.33 77.1132 18.1467C77.6499 17.5317 78.1232 16.96 78.5282 16.4334C79.0549 15.7467 79.4765 15.125 79.7999 14.5434C80.4915 13.3 83.0815 6.8867 82.6465 2.87003V2.87003Z" fill="black" fill-opacity="0.3"/>
<path d="M82.4999 2.01333C81.8849 2.01333 81.2482 2.00833 80.6032 2C74.0782 5.12333 68.0882 8.99 62.6499 13.2167C61.5166 11.7667 60.2316 8.99667 59.6382 6.52833C57.064 7.7867 54.5683 9.19984 52.1649 10.76C52.6799 13.945 53.5849 18.055 54.5899 20.075C35.5449 37.7483 25.2299 58.0217 25.0882 58.3067C24.9892 58.5045 24.9728 58.7335 25.0427 58.9434C25.1125 59.1533 25.2629 59.3268 25.4607 59.4258C25.6585 59.5248 25.8876 59.5412 26.0975 59.4714C26.3073 59.4015 26.4809 59.2511 26.5799 59.0533C26.7782 58.6567 46.8199 19.2483 82.6782 2.85333C82.6282 2.57142 82.5687 2.29126 82.4999 2.01333V2.01333Z" fill="#F35B2E" fill-opacity="0.3"/>
</g>
<g filter="url(#filter1_b_118_12)">
<path d="M21.78 19.796H13.608V41H8.676V19.796H0.504V15.44H21.78V19.796ZM29.6463 41.36C27.5823 41.36 25.8063 40.916 24.3183 40.028C22.8543 39.116 21.7263 37.916 20.9343 36.428C20.1423 34.94 19.7463 33.332 19.7463 31.604C19.7463 29.852 20.1423 28.232 20.9343 26.744C21.7503 25.256 22.8903 24.068 24.3543 23.18C25.8423 22.268 27.6063 21.812 29.6463 21.812C31.6863 21.812 33.4383 22.268 34.9023 23.18C36.3903 24.068 37.5303 25.256 38.3223 26.744C39.1143 28.232 39.5103 29.852 39.5103 31.604C39.5103 33.332 39.1143 34.94 38.3223 36.428C37.5303 37.916 36.3903 39.116 34.9023 40.028C33.4383 40.916 31.6863 41.36 29.6463 41.36ZM24.7143 31.604C24.7143 32.708 24.9303 33.692 25.3623 34.556C25.7943 35.396 26.3823 36.056 27.1263 36.536C27.8703 37.016 28.7103 37.256 29.6463 37.256C30.5583 37.256 31.3863 37.016 32.1303 36.536C32.8743 36.032 33.4623 35.36 33.8943 34.52C34.3503 33.656 34.5783 32.672 34.5783 31.568C34.5783 30.488 34.3503 29.528 33.8943 28.688C33.4623 27.824 32.8743 27.152 32.1303 26.672C31.3863 26.168 30.5583 25.916 29.6463 25.916C28.7103 25.916 27.8703 26.168 27.1263 26.672C26.3823 27.152 25.7943 27.824 25.3623 28.688C24.9303 29.528 24.7143 30.5 24.7143 31.604ZM42.5863 33.944V22.136H47.4103V32.9C47.4103 35.804 48.4543 37.256 50.5423 37.256C51.4783 37.256 52.3783 36.98 53.2423 36.428C54.1303 35.852 54.8503 34.988 55.4023 33.836V22.136H60.2263V35.6C60.2263 36.128 60.3103 36.5 60.4783 36.716C60.6463 36.908 60.9463 37.028 61.3783 37.076V41C60.8983 41.096 60.4903 41.156 60.1543 41.18C59.8423 41.204 59.5543 41.216 59.2903 41.216C58.4263 41.216 57.7183 41.024 57.1663 40.64C56.6383 40.232 56.3263 39.68 56.2303 38.984L56.1223 37.472C55.2823 38.768 54.2023 39.74 52.8823 40.388C51.5623 41.036 50.1103 41.36 48.5263 41.36C46.5823 41.36 45.1063 40.736 44.0983 39.488C43.0903 38.216 42.5863 36.368 42.5863 33.944ZM73.8042 41.36C71.7642 41.36 70.0002 40.904 68.5122 39.992C67.0242 39.08 65.8722 37.88 65.0562 36.392C64.2402 34.904 63.8322 33.296 63.8322 31.568C63.8322 29.816 64.2282 28.196 65.0202 26.708C65.8362 25.22 66.9882 24.032 68.4762 23.144C69.9642 22.256 71.7282 21.812 73.7682 21.812C75.8322 21.812 77.5842 22.256 79.0242 23.144C80.4882 24.032 81.5802 25.196 82.3002 26.636L77.5842 28.076C76.7442 26.636 75.4602 25.916 73.7322 25.916C72.7962 25.916 71.9562 26.156 71.2122 26.636C70.4682 27.092 69.8802 27.752 69.4482 28.616C69.0162 29.456 68.8002 30.44 68.8002 31.568C68.8002 32.672 69.0162 33.656 69.4482 34.52C69.9042 35.36 70.5042 36.032 71.2482 36.536C71.9922 37.016 72.8202 37.256 73.7322 37.256C74.5962 37.256 75.3882 37.052 76.1082 36.644C76.8522 36.212 77.3682 35.672 77.6562 35.024L82.3722 36.464C81.7242 37.88 80.6442 39.056 79.1322 39.992C77.6442 40.904 75.8682 41.36 73.8042 41.36ZM102.873 41H98.0485V30.416C98.0485 28.952 97.7605 27.86 97.1845 27.14C96.6325 26.42 95.8645 26.06 94.8805 26.06C94.2805 26.06 93.6565 26.228 93.0085 26.564C92.3845 26.9 91.8085 27.368 91.2805 27.968C90.7765 28.544 90.4045 29.216 90.1645 29.984V41H85.3405V14.72H90.1645V25.628C90.8605 24.428 91.8085 23.492 93.0085 22.82C94.2085 22.148 95.5165 21.812 96.9325 21.812C98.5405 21.812 99.7765 22.172 100.641 22.892C101.505 23.612 102.093 24.536 102.405 25.664C102.717 26.792 102.873 27.98 102.873 29.228V41Z" fill="#5A0A0A"/>
</g>
<defs>
<filter id="filter0_f_118_12" x="23" y="0" width="61.6984" height="61.514" filterUnits="userSpaceOnUse" color-interpolation-filters="sRGB">
<feFlood flood-opacity="0" result="BackgroundImageFix"/>
<feBlend mode="normal" in="SourceGraphic" in2="BackgroundImageFix" result="shape"/>
<feGaussianBlur stdDeviation="1" result="effect1_foregroundBlur_118_12"/>
</filter>
<filter id="filter1_b_118_12" x="-3.49597" y="10.72" width="110.369" height="34.64" filterUnits="userSpaceOnUse" color-interpolation-filters="sRGB">
<feFlood flood-opacity="0" result="BackgroundImageFix"/>
<feGaussianBlur in="BackgroundImage" stdDeviation="2"/>
<feComposite in2="SourceAlpha" operator="in" result="effect1_backgroundBlur_118_12"/>
<feBlend mode="normal" in="SourceGraphic" in2="effect1_backgroundBlur_118_12" result="shape"/>
</filter>
</defs>
</svg>
